<?xml version="1.0" encoding="UTF-8"?>
<svg id="Camada_4" data-name="Camada 4" xmlns="http://www.w3.org/2000/svg" viewBox="0 0 1523.85 632.09">
  <defs>
    <style>
      .cls-1 {
        fill: #fff;
      }

      .cls-2 {
        fill: #13cfa8;
      }
    </style>
  </defs>
  <g>
    <g>
      <g>
        <path class="cls-1" d="m520.56,256.33v20h-40v-20c0-10.94-8.78-19.82-19.67-20-.11-.01-.23-.01-.34-.01s-.23,0-.34.01c-10.77.17-19.48,8.88-19.65,19.66-.01.11-.01.23-.01.34s0,.23.01.34v36.97h-40v-38.08c.08-6.74,1.27-13.2,3.41-19.23,6.02-17.05,19.54-30.57,36.59-36.59,6.02-2.14,12.49-3.33,19.22-3.41h1.55c6.74.08,13.2,1.28,19.23,3.41,17.05,6.03,30.56,19.54,36.58,36.59,2.22,6.26,3.42,12.99,3.42,20Z"/>
        <path class="cls-1" d="m480.56,356.33h40v20c0,7.01-1.2,13.75-3.42,20-6.02,17.04-19.53,30.55-36.58,36.58-6.26,2.21-12.99,3.42-20.01,3.42s-13.74-1.2-19.99-3.42c-17.05-6.02-30.57-19.53-36.59-36.58-2.13-6.02-3.33-12.49-3.41-19.22v-43.47h40v42.35c-.01.11-.01.23-.01.34s0,.23.01.34c.18,10.88,9.06,19.66,19.99,19.66s20.01-8.96,20.01-20v-20Z"/>
        <rect class="cls-2" x="440.56" y="293.64" width="40" height="40"/>
      </g>
      <path class="cls-1" d="m1243.28,255.77v180h-40v-180c0-11.05-8.96-20-20-20s-20,8.95-20,20v180h-40v-180c0-10.45-7.99-19.04-18.19-20-.62-.06-1.26-.09-1.9-.09s-1.28.03-1.9.09c-9.34.88-16.82,8.16-18.01,17.41-.11.84-.17,1.71-.17,2.59s.06,1.75.17,2.59v177.41h-40v-184.47c.39-5.41,1.5-10.62,3.24-15.53,6.04-17.12,19.63-30.69,36.76-36.7,5.26-1.86,10.85-2.99,16.67-3.3h6.48c5.88.31,11.54,1.47,16.85,3.36,7.46,2.64,14.25,6.72,20.02,11.9,5.77-5.16,12.54-9.22,19.98-11.85,6.03-2.14,12.49-3.33,19.23-3.41h1.55c6.73.08,13.2,1.28,19.22,3.41,17.05,6.02,30.56,19.54,36.58,36.59,2.22,6.26,3.42,12.99,3.42,20Z"/>
      <path class="cls-1" d="m1363.29,255.77v40c-.05,11-8.99,19.91-20,19.91v.08c.11,0,.23,0,.34.01h-.34v39.91c.75,0,1.5-.01,2.25-.05h.03c6.2-.22,12.15-1.39,17.72-3.37,17.01-6.01,30.51-19.48,36.55-36.49,2.22-6.25,3.44-12.98,3.45-20v-40h-40Zm36.6,19.95s.01.03.02.05h-.04s.01-.03.02-.05Z"/>
      <path class="cls-1" d="m1399.87,235.77c-6.02-17.05-19.53-30.56-36.58-36.58-6.25-2.22-12.99-3.42-20-3.42s-13.74,1.2-20,3.42c-17.05,6.02-30.56,19.53-36.58,36.58-2.22,6.26-3.42,12.99-3.42,20v180h40v-180c0-11.05,8.95-20,20-20s20,8.95,20,20h40c0-7.01-1.2-13.74-3.42-20Zm-113.2,40s.01-.03.02-.05c0,.02.01.03.02.05h-.04Z"/>
      <path class="cls-1" d="m803.28,275.77v-20c0-10.94-8.78-19.82-19.67-20-.11-.01-.23-.01-.34-.01s-.23,0-.34.01c-10.77.17-19.48,8.88-19.65,19.66-.01.11-.01.23-.01.34s0,.23.01.34v119.32c-.01.11-.01.23-.01.34s0,.23.01.34c.18,10.88,9.06,19.66,19.99,19.66s20.01-8.96,20.01-20v-20h40v20c0,7.01-1.2,13.75-3.42,20-6.02,17.04-19.53,30.55-36.58,36.58-6.26,2.21-12.99,3.42-20.01,3.42s-13.74-1.2-19.99-3.42c-17.05-6.02-30.57-19.53-36.59-36.58-2.13-6.02-3.33-12.49-3.41-19.22v-121.55c.08-6.74,1.27-13.2,3.41-19.23,6.02-17.05,19.54-30.57,36.59-36.59,6.02-2.14,12.49-3.33,19.22-3.41h1.55c6.74.08,13.2,1.28,19.23,3.41,17.05,6.03,30.56,19.54,36.58,36.59,2.22,6.26,3.42,12.99,3.42,20v20h-40Z"/>
      <path class="cls-1" d="m683.28,255.77v180h-40v-180c0-11.05-8.96-20-20-20s-20,8.95-20,20v180h-40v-180c0-7.01,1.2-13.74,3.42-20,6.02-17.05,19.53-30.56,36.58-36.58,6.26-2.22,12.99-3.42,20-3.42s13.75,1.2,20,3.42c17.05,6.02,30.56,19.53,36.58,36.58,2.22,6.26,3.42,12.99,3.42,20Z"/>
      <path class="cls-1" d="m999.86,235.77c-6.02-17.05-19.53-30.56-36.58-36.58-6.25-2.22-12.99-3.42-20-3.42s-13.74,1.2-20,3.42c-17.05,6.02-30.56,19.53-36.58,36.58-2.22,6.26-3.42,12.99-3.42,20v120c0,7.01,1.2,13.74,3.42,20,6.02,17.05,19.53,30.56,36.58,36.58,6.26,2.22,12.99,3.42,20,3.42s13.75-1.2,20-3.42c17.05-6.02,30.56-19.53,36.58-36.58,2.22-6.26,3.42-12.99,3.42-20v-120c0-7.01-1.2-13.74-3.42-20Zm-36.58,140c0,11.05-8.96,20-20,20s-20-8.95-20-20v-120c0-11.05,8.95-20,20-20s20,8.95,20,20v120Z"/>
      <rect class="cls-2" x="643.28" y="395.77" width="40" height="40"/>
      <rect class="cls-2" x="723.28" y="333.64" width="40" height="40"/>
      <rect class="cls-2" x="963.28" y="262.4" width="40" height="40"/>
      <rect class="cls-2" x="1123.28" y="395.77" width="40" height="40"/>
      <rect class="cls-2" x="1363.29" y="255.77" width="40" height="40"/>
    </g>
    <g>
      <rect class="cls-1" x="200.56" y="196.05" width="40" height="200"/>
      <rect class="cls-1" x="120.56" y="196.05" width="40" height="200"/>
      <rect class="cls-2" x="160.56" y="396.05" width="40" height="40"/>
      <rect class="cls-1" x="280.56" y="196.05" width="40" height="240"/>
    </g>
  </g>
</svg>
